<svg width="699" height="307" viewBox="0 0 699 307" fill="none" xmlns="http://www.w3.org/2000/svg">
<path d="M243.428 234.596C239.78 234.596 236.892 233.608 234.764 231.632C232.788 229.504 231.8 226.616 231.8 222.968V139.52H219.032C216.144 139.52 213.864 138.76 212.192 137.24C210.52 135.568 209.684 133.364 209.684 130.628C209.684 127.74 210.52 125.536 212.192 124.016C213.864 122.496 216.144 121.736 219.032 121.736H238.412L231.8 127.892V119.684C231.8 104.636 235.524 93.3121 242.972 85.7121C250.42 77.9601 261.288 73.4001 275.576 72.0321L282.644 71.5761C285.228 71.2721 287.28 71.6521 288.8 72.7161C290.32 73.7801 291.308 75.1481 291.764 76.8201C292.22 78.4921 292.22 80.2401 291.764 82.0641C291.46 83.7361 290.7 85.2561 289.484 86.6241C288.268 87.9921 286.748 88.7521 284.924 88.9041L280.592 89.1321C271.624 89.8921 265.088 92.4761 260.984 96.8841C256.88 101.14 254.828 107.676 254.828 116.492V125.384L251.636 121.736H276.944C280.136 121.736 282.492 122.496 284.012 124.016C285.684 125.536 286.52 127.74 286.52 130.628C286.52 133.364 285.684 135.568 284.012 137.24C282.492 138.76 280.136 139.52 276.944 139.52H254.828V222.968C254.828 230.72 251.028 234.596 243.428 234.596ZM340.1 235.052C328.244 235.052 319.276 231.632 313.196 224.792C307.268 217.8 304.304 207.768 304.304 194.696V82.2921C304.304 78.4921 305.292 75.6041 307.268 73.6281C309.244 71.6521 312.056 70.6641 315.704 70.6641C319.352 70.6641 322.164 71.6521 324.14 73.6281C326.268 75.6041 327.332 78.4921 327.332 82.2921V193.328C327.332 200.928 328.852 206.628 331.892 210.428C335.084 214.076 339.644 215.9 345.572 215.9C346.94 215.9 348.156 215.9 349.22 215.9C350.284 215.748 351.348 215.596 352.412 215.444C354.236 215.292 355.528 215.824 356.288 217.04C357.048 218.104 357.428 220.384 357.428 223.88C357.428 227.072 356.744 229.58 355.376 231.404C354.008 233.076 351.804 234.14 348.764 234.596C347.396 234.748 345.952 234.824 344.432 234.824C342.912 234.976 341.468 235.052 340.1 235.052Z" fill="black"/>
<path d="M420.906 235.052C408.746 235.052 398.258 232.772 389.442 228.212C380.778 223.5 374.014 216.888 369.15 208.376C364.438 199.712 362.082 189.452 362.082 177.596C362.082 166.044 364.438 155.936 369.15 147.272C373.862 138.608 380.322 131.844 388.53 126.98C396.738 122.116 406.086 119.684 416.574 119.684C424.326 119.684 431.242 120.976 437.322 123.56C443.402 125.992 448.57 129.64 452.826 134.504C457.234 139.216 460.502 144.992 462.63 151.832C464.91 158.672 466.051 166.348 466.051 174.86C466.051 177.444 465.29 179.42 463.77 180.788C462.25 182.004 459.97 182.612 456.93 182.612H380.322V168.476H450.546L446.671 171.668C446.671 164.068 445.531 157.608 443.251 152.288C441.122 146.968 437.855 142.94 433.447 140.204C429.191 137.316 423.87 135.872 417.486 135.872C410.342 135.872 404.262 137.544 399.246 140.888C394.382 144.232 390.658 148.868 388.074 154.796C385.49 160.724 384.198 167.64 384.198 175.544V176.912C384.198 190.288 387.314 200.396 393.546 207.236C399.93 213.924 409.126 217.268 421.134 217.268C425.694 217.268 430.482 216.66 435.498 215.444C440.666 214.228 445.53 212.176 450.09 209.288C452.674 207.768 454.954 207.084 456.93 207.236C459.058 207.388 460.731 208.072 461.947 209.288C463.315 210.504 464.15 212.024 464.454 213.848C464.758 215.672 464.454 217.572 463.542 219.548C462.63 221.372 461.035 223.044 458.755 224.564C453.586 228.06 447.582 230.72 440.742 232.544C433.902 234.216 427.29 235.052 420.906 235.052Z" fill="black"/>
<path d="M538.807 235.052C526.647 235.052 516.159 232.772 507.343 228.212C498.679 223.5 491.915 216.888 487.051 208.376C482.339 199.712 479.983 189.452 479.983 177.596C479.983 166.044 482.339 155.936 487.051 147.272C491.763 138.608 498.223 131.844 506.431 126.98C514.639 122.116 523.987 119.684 534.475 119.684C542.227 119.684 549.143 120.976 555.223 123.56C561.303 125.992 566.471 129.64 570.727 134.504C575.135 139.216 578.403 144.992 580.531 151.832C582.811 158.672 583.951 166.348 583.951 174.86C583.951 177.444 583.191 179.42 581.671 180.788C580.151 182.004 577.871 182.612 574.831 182.612H498.223V168.476H568.447L564.571 171.668C564.571 164.068 563.431 157.608 561.151 152.288C559.023 146.968 555.755 142.94 551.347 140.204C547.091 137.316 541.771 135.872 535.387 135.872C528.243 135.872 522.163 137.544 517.147 140.888C512.283 144.232 508.559 148.868 505.975 154.796C503.391 160.724 502.099 167.64 502.099 175.544V176.912C502.099 190.288 505.215 200.396 511.447 207.236C517.831 213.924 527.027 217.268 539.035 217.268C543.595 217.268 548.383 216.66 553.399 215.444C558.567 214.228 563.431 212.176 567.991 209.288C570.575 207.768 572.855 207.084 574.831 207.236C576.959 207.388 578.631 208.072 579.847 209.288C581.215 210.504 582.051 212.024 582.355 213.848C582.659 215.672 582.355 217.572 581.443 219.548C580.531 221.372 578.935 223.044 576.655 224.564C571.487 228.06 565.483 230.72 558.643 232.544C551.803 234.216 545.191 235.052 538.807 235.052Z" fill="black"/>
<path d="M615.896 234.596C612.248 234.596 609.436 233.608 607.46 231.632C605.484 229.504 604.496 226.616 604.496 222.968V82.2921C604.496 78.4921 605.484 75.6041 607.46 73.6281C609.436 71.6521 612.248 70.6641 615.896 70.6641C619.544 70.6641 622.356 71.6521 624.332 73.6281C626.46 75.6041 627.524 78.4921 627.524 82.2921V170.3H627.98L670.616 127.892C673.048 125.46 675.252 123.56 677.228 122.192C679.204 120.824 681.788 120.14 684.98 120.14C688.172 120.14 690.604 120.976 692.276 122.648C693.948 124.32 694.784 126.372 694.784 128.804C694.784 131.084 693.644 133.44 691.364 135.872L646.22 180.56V169.844L695.468 218.864C697.9 221.296 699.04 223.728 698.888 226.16C698.736 228.592 697.748 230.644 695.924 232.316C694.1 233.836 691.82 234.596 689.084 234.596C685.588 234.596 682.776 233.912 680.648 232.544C678.672 231.176 676.316 229.124 673.58 226.388L627.98 182.156H627.524V222.968C627.524 230.72 623.648 234.596 615.896 234.596Z" fill="black"/>
<mask id="mask0_847_14" style="mask-type:alpha" maskUnits="userSpaceOnUse" x="0" y="0" width="190" height="307">
<path fill-rule="evenodd" clip-rule="evenodd" d="M185.723 0.562608C187.422 -1.06048 190.006 1.1527 188.677 3.09299L129.242 89.8622C128.306 91.2276 129.377 93.0695 131.021 92.9251L165.96 89.857C167.7 89.7042 168.749 91.7454 167.616 93.08L107.653 163.772C106.521 165.107 107.57 167.147 109.309 166.995L146.932 163.691C148.773 163.53 149.787 165.786 148.448 167.063L3.32123 305.671C1.62178 307.295 -0.96231 305.081 0.366724 303.141L60.5835 215.23C61.5188 213.865 60.4489 212.022 58.8045 212.167L23.118 215.301C21.3843 215.453 20.3335 213.425 21.4535 212.088L79.6533 142.605C80.7733 141.268 79.7225 139.238 77.9888 139.391L42.112 142.542C40.272 142.703 39.258 140.447 40.5961 139.17L185.723 0.562608Z" fill="white"/>
</mask>
<g mask="url(#mask0_847_14)">
<g style="mix-blend-mode:overlay">
<rect x="-6" y="-7" width="205.297" height="317.354" fill="black"/>
</g>
</g>
</svg>
